<svg width="41" height="41" viewBox="0 0 41 41" fill="none" xmlns="http://www.w3.org/2000/svg">
<path d="M14.6405 26.086L25.813 14.9136" stroke="white" stroke-width="2" stroke-linecap="round" stroke-linejoin="round"/>
<path d="M15.3408 17.7152C16.5013 17.7152 17.442 16.7745 17.442 15.614C17.442 14.4535 16.5013 13.5127 15.3408 13.5127C14.1803 13.5127 13.2396 14.4535 13.2396 15.614C13.2396 16.7745 14.1803 17.7152 15.3408 17.7152Z" stroke="white" stroke-width="2" stroke-linecap="round" stroke-linejoin="round"/>
<path d="M26.5134 27.4872C27.6739 27.4872 28.6147 26.5464 28.6147 25.3859C28.6147 24.2254 27.6739 23.2847 26.5134 23.2847C25.3529 23.2847 24.4122 24.2254 24.4122 25.3859C24.4122 26.5464 25.3529 27.4872 26.5134 27.4872Z" stroke="white" stroke-width="2" stroke-linecap="round" stroke-linejoin="round"/>
<path d="M20.5 37.5832C29.9349 37.5832 37.5834 29.9347 37.5834 20.4998C37.5834 11.065 29.9349 3.4165 20.5 3.4165C11.0652 3.4165 3.41669 11.065 3.41669 20.4998C3.41669 29.9347 11.0652 37.5832 20.5 37.5832Z" stroke="white" stroke-width="2" stroke-linecap="round" stroke-linejoin="round"/>
</svg>